<svg width="16" height="16" viewBox="0 0 16 16" fill="none" xmlns="http://www.w3.org/2000/svg">
<path d="M0.666672 0.666504H3.33334L5.12 9.59317C5.18097 9.9001 5.34794 10.1758 5.5917 10.372C5.83546 10.5683 6.14047 10.6725 6.45334 10.6665H12.9333C13.2462 10.6725 13.5512 10.5683 13.795 10.372C14.0387 10.1758 14.2057 9.9001 14.2667 9.59317L15.3333 3.99984H4M6.66667 13.9998C6.66667 14.368 6.3682 14.6665 6.00001 14.6665C5.63182 14.6665 5.33334 14.368 5.33334 13.9998C5.33334 13.6316 5.63182 13.3332 6.00001 13.3332C6.3682 13.3332 6.66667 13.6316 6.66667 13.9998ZM14 13.9998C14 14.368 13.7015 14.6665 13.3333 14.6665C12.9651 14.6665 12.6667 14.368 12.6667 13.9998C12.6667 13.6316 12.9651 13.3332 13.3333 13.3332C13.7015 13.3332 14 13.6316 14 13.9998Z" stroke="#F5F5F5" stroke-width="1.6" stroke-linecap="round" stroke-linejoin="round"/>
</svg>
